PathFileType	4	(X/Y/Z)	D:\datacapture\jf2lin\2017-09-14 IITTimeSync\timesync2.trc
DataRate	CameraRate	NumFrames	NumMarkers	Units	OrigDataRate	OrigDataStartFrame	OrigNumFrames
100.00	100.00	      62	3	mm	100.00	719	      2873
Frame#	Time	M1			M2			M3			
		X1	Y1	Z1	X2	Y2	Z2	X3	Y3	Z3	

719	7.180	487.57455	1265.44983	909.21466	489.10248	1310.10803	882.50800				
720	7.190	485.97644	1265.16064	907.56964	489.16254	1310.09875	880.89575				
721	7.200	485.86096	1265.13745	905.54169	489.44836	1310.31189	878.75916				
722	7.210	484.89139	1265.44263	903.30573	489.96484	1310.65332	876.95709				
723	7.220	484.59927	1265.48315	900.60773	490.63852	1310.82886	874.33820				
724	7.230	484.07062	1265.88538	897.88135	491.33212	1310.95508	871.52893				
725	7.240	483.69730	1266.33313	893.94208	491.71564	1311.73486	869.10284				
726	7.250	482.27570	1266.83765	890.85449	491.77515	1312.20593	866.20081				
727	7.260	481.62659	1267.64502	887.75574	492.32275	1312.86829	863.49701				
728	7.270	480.10074	1268.39795	884.58331	491.92670	1313.79456	863.32019				
729	7.280	479.36716	1269.34802	881.56000	495.20621	1313.41870	857.88110				
730	7.290	478.20544	1271.10938	879.02515	492.35117	1316.35535	856.43359				
731	7.300	477.78943	1272.70581	876.44012	494.14297	1316.74133	853.89325				
732	7.310	476.71121	1274.89233	874.31134	494.55353	1318.40283	851.84509				
733	7.320	478.36011	1275.02527	871.22101	496.32193	1319.22192	849.37823				
734	7.330	478.77017	1276.54980	868.26849	498.03888	1319.56030	846.63336				
735	7.340	479.52750	1277.31250	865.35651	502.23123	1318.87292	844.38397				
736	7.350	480.53143	1277.89734	862.03711	503.12766	1319.41418	841.14093				
737	7.360	481.35123	1278.41064	858.21704	502.53976	1320.98401	837.63733				
738	7.370	482.35431	1278.47534	854.34595	503.51569	1321.64587	834.34186				
739	7.380	482.66846	1279.02979	850.97571	504.83994	1321.95349	830.84937				
740	7.390	482.72971	1279.37451	846.99084	508.42001	1320.98877	827.63910				
741	7.400	483.96872	1279.48926	842.72546	508.87476	1320.78455	824.52985				
742	7.410	484.16925	1280.05579	839.13000	508.19269	1321.83777	820.35095				
743	7.420	484.40869	1279.89197	835.43750	508.20419	1322.48401	817.13513				
744	7.430	484.30988	1280.36450	832.14435	509.05026	1322.13354	813.71094				
745	7.440	483.84442	1280.64832	828.67987	509.22742	1322.08301	810.19672				
746	7.450	482.99973	1280.92163	825.19135	508.75845	1322.38965	807.00397				
747	7.460	482.06912	1281.20752	821.84796	508.41464	1322.48206	803.89398				
748	7.470	481.27731	1281.47705	818.50391	508.24890	1322.01965	800.23633				
749	7.480	479.24179	1282.01001	814.38110	507.80200	1321.54846	796.53418				
750	7.490	477.94968	1282.08875	810.77838	507.74277	1321.33264	793.22406				
751	7.500	475.95941	1282.50281	807.02881	506.91995	1320.87708	789.46539				
752	7.510	474.57343	1282.78088	802.90985	504.09683	1321.49219	785.19043				
753	7.520	472.01126	1283.01563	798.96472	503.62994	1320.56091	781.36932				
754	7.530	470.10965	1283.12097	794.66736	502.22043	1320.47974	776.95227				
755	7.540	468.20288	1283.22034	789.76385	500.47879	1320.54077	772.00671				
756	7.550	465.45578	1283.80615	784.94812	499.19559	1320.07678	766.89642				
757	7.560	463.72760	1284.05591	779.17737	496.40060	1320.19910	761.25098				
758	7.570	461.15439	1284.32068	773.07947	494.36102	1320.41675	755.33307				
759	7.580	458.30734	1284.89612	766.94324	491.48178	1320.47791	748.40149				
760	7.590	455.22308	1285.51208	760.54333	489.65671	1320.42444	742.03717				
761	7.600	452.65665	1285.94763	753.70435	487.37030	1320.33350	735.57416				
762	7.610	449.59497	1286.25122	746.79706	484.72598	1320.84277	728.44720				
763	7.620	446.80804	1287.01758	739.49847	482.40823	1321.01953	721.03625				
764	7.630	443.60010	1287.68237	732.35626	479.65204	1321.11194	714.39270				
765	7.640	440.19980	1288.79590	725.17017	476.23669	1321.75842	706.58826				
766	7.650	436.90036	1289.92102	717.44153	473.10873	1322.26318	699.00879				
767	7.660	432.83823	1291.00720	709.64777	469.83716	1322.96057	690.95032				
768	7.670	429.53543	1292.12207	701.69269	466.66666	1323.86487	682.91888				
769	7.680	426.15295	1293.13574	693.58459	463.37585	1324.21021	674.61926				
770	7.690	422.90515	1294.27966	685.26532	460.17648	1324.95532	666.10266				
771	7.700	419.41495	1294.98596	676.80029	456.91125	1325.56238	657.57056				
772	7.710	416.12347	1295.76465	667.99292	453.67523	1326.17822	649.22498				
773	7.720	412.07474	1296.70117	659.86627	450.57324	1326.60400	640.55035				
774	7.730	408.15570	1298.20911	651.68085	445.97498	1327.57324	631.84021				
775	7.740	405.17847	1299.20361	642.48291	442.39691	1328.52869	622.99316				
776	7.750	400.55365	1300.91675	634.21057	439.37473	1329.22986	614.24860	554.08380	1412.89233	556.28070	
777	7.760	395.91235	1302.55896	625.37659	435.40320	1330.28186	605.61255	551.80316	1412.72424	547.56958	
778	7.770	392.02365	1304.22620	616.85876	430.90518	1331.33154	596.78418	548.91516	1412.72473	539.31116	
779	7.780	388.27759	1305.84558	608.20569	428.34918	1331.53601	588.68677	542.79773	1406.94153	534.82312	
780	7.790	383.47281	1306.65686	599.53955	424.70828	1332.65137	580.66644	540.56317	1405.86084	527.05145	
